HIERARCHY
ROOT root
{
	OFFSET	0	13.1	24.9
	CHANNELS 6  Xposition Yposition Zposition Xrotation Yrotation Zrotation
	JOINT spine_1
	{
		OFFSET	0	9.99999	0
		CHANNELS 3  Xrotation Yrotation Zrotation
		JOINT spine_2
		{
			OFFSET	0	112	-10
			CHANNELS 3  Xrotation Yrotation Zrotation
			JOINT spine_3
			{
				OFFSET	0	206.5	19.3
				CHANNELS 3  Xrotation Yrotation Zrotation
				JOINT spine_4
				{
					OFFSET	0	110.4	14.6
					CHANNELS 3  Xrotation Yrotation Zrotation
					JOINT neck_1
					{
						OFFSET	0	71.8	-50.3
						CHANNELS 3  Xrotation Yrotation Zrotation
						JOINT neck_2
						{
							OFFSET	0	86.2	-25.8
							CHANNELS 3  Xrotation Yrotation Zrotation
							JOINT head_ee
							{
								OFFSET	0	179.8	-8.7
								CHANNELS 3  Xrotation Yrotation Zrotation
								End Site
								{
									OFFSET	1	0	0
								}
							}
						}
					}
					JOINT left_clavicle
					{
						OFFSET	-43.2	22.4	-70.8
						CHANNELS 3  Xrotation Yrotation Zrotation
						JOINT left_shoulder
						{
							OFFSET	-93.9	-5.79999	48.7
							CHANNELS 3  Xrotation Yrotation Zrotation
							JOINT left_elbow
							{
								OFFSET	-291.4	-30.8	15.2
								CHANNELS 3  Xrotation Yrotation Zrotation
								JOINT left_lowarm_twist
								{
									OFFSET	-110.7	-3.89999	13.6
									CHANNELS 3  Xrotation Yrotation Zrotation
									JOINT left_hand
									{
										OFFSET	-110.7	-3.89999	13.6
										CHANNELS 3  Xrotation Yrotation Zrotation
										JOINT left_ee
										{
											OFFSET	-80.8	-5.10001	12.1
											CHANNELS 3  Xrotation Yrotation Zrotation
											End Site
											{
												OFFSET	1	0	0
											}
										}
									}
								}
							}
						}
					}
					JOINT right_clavicle
					{
						OFFSET	43.2	22.4	-70.8
						CHANNELS 3  Xrotation Yrotation Zrotation
						JOINT right_shoulder
						{
							OFFSET	93.9	-5.79999	48.7
							CHANNELS 3  Xrotation Yrotation Zrotation
							JOINT right_elbow
							{
								OFFSET	291.4	-30.8	15.2
								CHANNELS 3  Xrotation Yrotation Zrotation
								JOINT right_lowarm_twist
								{
									OFFSET	110.7	-3.89999	13.6
									CHANNELS 3  Xrotation Yrotation Zrotation
									JOINT right_hand
									{
										OFFSET	110.7	-3.89999	13.6
										CHANNELS 3  Xrotation Yrotation Zrotation
										JOINT right_ee
										{
											OFFSET	80.8	-5.10001	12.1
											CHANNELS 3  Xrotation Yrotation Zrotation
											End Site
											{
												OFFSET	1	0	0
											}
										}
									}
								}
							}
						}
					}
				}
			}
		}
	}
	JOINT left_hip
	{
		OFFSET	-82.8	-127.5	0.300001
		CHANNELS 3  Xrotation Yrotation Zrotation
		JOINT left_knee
		{
			OFFSET	-28.2	-396.7	2.2
			CHANNELS 3  Xrotation Yrotation Zrotation
			JOINT left_ankle
			{
				OFFSET	-11.7	-411.3	35.4
				CHANNELS 3  Xrotation Yrotation Zrotation
				JOINT left_toes
				{
					OFFSET	0	-60	-88.6
					CHANNELS 3  Xrotation Yrotation Zrotation
					JOINT left_foot_ee
					{
						OFFSET	-22.5	-16.5	-42.2
						CHANNELS 3  Xrotation Yrotation Zrotation
						End Site
						{
							OFFSET	1	0	0
						}
					}
				}
			}
		}
	}
	JOINT right_hip
	{
		OFFSET	82.8	-127.5	0.300001
		CHANNELS 3  Xrotation Yrotation Zrotation
		JOINT right_knee
		{
			OFFSET	28.2	-396.7	2.2
			CHANNELS 3  Xrotation Yrotation Zrotation
			JOINT right_ankle
			{
				OFFSET	11.7	-411.3	35.4
				CHANNELS 3  Xrotation Yrotation Zrotation
				JOINT right_toes
				{
					OFFSET	0	-60	-88.6
					CHANNELS 3  Xrotation Yrotation Zrotation
					JOINT right_foot_ee
					{
						OFFSET	22.5	-16.5	-42.2
						CHANNELS 3  Xrotation Yrotation Zrotation
						End Site
						{
							OFFSET	1	0	0
						}
					}
				}
			}
		}
	}
}
MOTION
Frames: 5
Frame Time: 0.02
2901.6 746.162 -1493.62 9.46663 61.8884 -14.4733 -0.956466 0.717807 3.35445 -0.950348 0.503026 3.39326 -0.915263 -0.276067 3.41919 -0.931475 0.26707 3.4199 -5.41436 16.5711 3.13842 -5.26825 28.2885 6.15238 -0.0 0.0 -0.0 -1.48636 7.55915 -1.75012 8.57318 -15.2287 59.344 1.36594 -34.0823 0.4187 -57.3729 -4.95796 5.01191 -0.220386 18.3653 6.1105 -0.0 0.0 -0.0 12.7768 18.7073 -25.8121 -21.4821 29.8879 -61.207 0.19557 5.53367 -0.00945151 -10.1262 0.464804 -1.20664 -3.3506 6.42879 26.2359 0.0 0.0 0.0 -2.27036 -20.8981 10.8594 -2.71774 0.10232 0.404495 40.5671 25.1589 -5.22734 -34.5455 0.0 0.0 -0.0 0.0 -0.0 10.7628 32.0686 0.104092 -59.8473 2.18352 -8.5086 28.4923 -7.74297 3.72594 -7.55365 0.0 0.0 0.0 0.0 0.0 
2890.36 749.409 -1490.32 8.66718 61.5131 -13.8191 -0.926651 0.700994 3.53784 -0.919813 0.4746 3.57521 -0.884482 -0.343017 3.5902 -0.902393 0.227915 3.59933 -6.71965 16.7498 2.21239 -6.69455 29.5494 5.58768 -0.0 0.0 -0.0 -1.50543 7.52254 -1.78969 9.88755 -14.3164 57.9022 1.60346 -38.4575 0.559319 -57.8772 -5.01999 5.0302 -0.601114 18.3539 3.8026 -0.0 0.0 -0.0 12.6545 18.4961 -25.5413 -22.4011 29.3532 -61.0112 0.201318 5.69525 -0.0100139 -9.72847 0.442554 -1.16088 -3.45707 5.42837 26.5477 0.0 0.0 0.0 -4.06472 -21.026 11.2061 1.77604 -0.0772 -0.261587 37.2653 26.7989 -4.95507 -34.22 0.0 0.0 -0.0 0.0 -0.0 14.2678 28.7914 -1.54744 -55.3641 1.72073 -7.99526 26.6888 -8.413 3.52594 -10.6173 0.0 0.0 0.0 0.0 0.0 
2879.43 745.354 -1486.75 7.31003 61.2678 -12.6892 -0.696447 0.530907 3.60929 -0.689251 0.300318 3.63571 -0.665076 -0.512964 3.61188 -0.683272 0.063508 3.64752 -7.18775 16.8885 2.03104 -7.2113 30.0225 5.563 -0.0 0.0 -0.0 -1.54403 6.87931 -1.95635 11.3838 -13.5846 56.5879 1.72822 -40.5636 0.638704 -58.0539 -5.04177 5.03648 -0.84202 18.2078 2.28709 -0.0 0.0 -0.0 12.7355 19.0992 -25.6916 -22.9694 29.0124 -60.7831 0.201717 5.70647 -0.0100535 -9.32149 0.42012 -1.11391 -3.53785 4.31872 26.6032 0.0 0.0 0.0 -6.43062 -18.6727 11.907 5.54882 -0.267936 -0.808786 35.7932 26.4727 -4.79042 -33.1562 0.0 0.0 -0.0 0.0 -0.0 16.8526 27.7796 -2.08094 -53.0689 1.49982 -7.71903 25.8745 -12.5112 3.44985 -12.8283 0.0 0.0 0.0 0.0 0.0 
2865.94 742.239 -1483.53 6.43546 60.2204 -11.7355 -0.683141 0.5721 3.44331 -0.676615 0.35197 3.47268 -0.650519 -0.425428 3.46446 -0.667243 0.126714 3.48816 -7.28346 17.3622 1.18423 -7.32549 31.5261 4.85944 -0.0 0.0 -0.0 -1.57317 6.17876 -2.1154 12.3957 -13.3967 55.4232 1.87148 -42.8285 0.734017 -57.8862 -5.02111 5.03052 -0.765227 15.6759 1.67751 -0.0 0.0 -0.0 12.6552 18.5524 -25.5396 -24.9286 28.3717 -59.4743 0.229942 6.49851 -0.013054 -9.35068 0.421717 -1.11728 -3.59353 3.25728 26.4837 0.0 0.0 0.0 -7.60764 -16.6796 12.33 6.94209 -0.347448 -1.00759 36.0345 27.0266 -4.83395 -31.7965 0.0 0.0 -0.0 0.0 -0.0 18.9137 25.1797 -1.32935 -50.4694 1.2633 -7.39595 24.6533 -9.94173 3.29572 -14.2681 0.0 0.0 0.0 0.0 0.0 
2856.81 745.497 -1479.91 6.80626 60.3586 -12.373 -0.815343 0.497386 3.47012 -0.808687 0.275703 3.4947 -0.786949 -0.513089 3.46784 -0.803727 0.0406811 3.50531 -7.8512 17.5972 0.660005 -7.96754 32.4262 4.56885 -0.0 0.0 -0.0 -1.53733 5.92786 -2.08822 13.3308 -13.3866 54.8158 2.01786 -44.9831 0.835548 -58.118 -5.04966 5.03874 -0.908853 15.5139 0.722645 -0.0 0.0 -0.0 12.6103 18.526 -25.4371 -25.6073 28.3374 -59.036 0.197399 5.58508 -0.00962862 -9.07902 0.406912 -1.08584 -3.67313 2.45235 26.6677 0.0 0.0 0.0 -7.6941 -16.1495 13.6394 6.09963 -0.29879 -0.887605 35.4063 27.8013 -4.79277 -31.0843 0.0 0.0 -0.0 0.0 -0.0 19.8453 24.5816 -1.51249 -48.6077 1.10309 -7.15823 24.0471 -10.5075 3.22642 -15.4043 0.0 0.0 0.0 0.0 0.0 
